<?xml version="1.0" encoding="UTF-8"?>
<svg width="2150px" height="530px" viewBox="0 0 2150 530" version="1.1" xmlns="http://www.w3.org/2000/svg" xmlns:xlink="http://www.w3.org/1999/xlink">
    <!-- Generator: Sketch 49.1 (51147) - http://www.bohemiancoding.com/sketch -->
    <title>Navbar</title>
    <desc>Created with Sketch.</desc>
    <defs></defs>
    <g id="Navbar" stroke="none" stroke-width="1" fill="none" fill-rule="evenodd" fill-opacity="0.87">
        <g id="Group" transform="translate(100.000000, 96.000000)" fill="#000000">
            <path d="M238.948243,201.529804 C237.727534,210.481671 235.123393,218.578921 231.135743,225.821796 C227.148093,233.06467 222.10257,239.249504 215.999024,244.376483 C209.895478,249.503462 202.89685,253.430018 195.00293,256.156268 C187.109011,258.882519 178.686243,260.123555 169.734376,259.879413 C162.491501,259.716652 156.062529,258.516306 150.447266,256.278339 C144.832004,254.040372 139.969585,251.029334 135.859864,247.245136 C131.750143,243.460937 128.352553,239.02576 125.666993,233.939472 C122.981433,228.853183 120.926603,223.400764 119.502442,217.58205 C118.078281,211.763336 117.264487,205.700571 117.061036,199.393573 C116.857584,193.086575 117.162757,186.800017 117.976563,180.53371 L121.516602,156.607929 C122.49317,150.016099 124.019033,143.424368 126.094239,136.832538 C128.169445,130.240708 130.753241,123.974495 133.845704,118.03371 C136.938167,112.092925 140.579895,106.579471 144.770997,101.493182 C148.962099,96.406894 153.702448,92.0327515 158.992188,88.3706239 C164.281928,84.7084962 170.1209,81.8602174 176.509278,79.825702 C182.897656,77.7911866 189.83525,76.8553236 197.322266,77.0180848 C206.436895,77.180846 214.371386,78.7880891 221.125977,81.8398621 C227.880568,84.8916352 233.475402,89.0623292 237.910645,94.3520692 C242.345889,99.6418092 245.702789,105.908023 247.981446,113.150897 C250.260103,120.393772 251.521484,128.328263 251.765626,136.954608 L218.562501,136.832538 C218.562501,132.519365 218.257328,128.450396 217.646973,124.625507 C217.036619,120.800618 215.856618,117.464063 214.106934,114.615741 C212.357251,111.76742 209.936214,109.468452 206.843751,107.718768 C203.751287,105.969085 199.763697,105.012877 194.88086,104.850116 C190.242165,104.687355 186.132506,105.358735 182.551759,106.864276 C178.971012,108.369818 175.81756,110.404302 173.091309,112.967792 C170.365059,115.531281 168.005056,118.562664 166.011231,122.06203 C164.017406,125.561397 162.328784,129.243814 160.945313,133.109393 C159.561843,136.974973 158.422531,140.901528 157.527345,144.889179 C156.632158,148.876829 155.940433,152.70166 155.452149,156.363788 L152.03418,180.65578 C151.627277,183.666863 151.26107,187.003418 150.935548,190.665546 C150.610025,194.327673 150.467611,198.030436 150.508302,201.773944 C150.548992,205.517452 150.894854,209.179525 151.545899,212.760272 C152.196944,216.341019 153.336256,219.535161 154.963868,222.342792 C156.59148,225.150423 158.788724,227.429046 161.555665,229.178729 C164.322606,230.928413 167.862609,231.88462 172.175782,232.047382 C177.058619,232.291524 181.412417,231.681178 185.237305,230.216327 C189.062194,228.751476 192.35806,226.676301 195.125001,223.990741 C197.891942,221.305181 200.170565,218.07035 201.960938,214.286151 C203.751312,210.501953 205.094072,206.331259 205.989259,201.773944 L238.948243,201.529804 Z M421.150391,257.315936 L388.069337,257.315936 L401.497071,180.289569 L352.913087,180.289569 L339.485352,257.315936 L306.282227,257.315936 L337.043946,79.5815614 L370.369141,79.5815614 L357.673829,152.457538 L406.257813,152.457538 L418.953126,79.5815614 L452.03418,79.5815614 L421.150391,257.315936 Z M542.073243,79.5815614 L642.048829,79.5815614 L637.166016,107.291522 L603.59668,107.291522 L582.356446,229.728046 L616.047852,229.728046 L611.16504,257.315936 L511.189454,257.315936 L516.072266,229.728046 L548.78711,229.728046 L570.027345,107.291522 L537.19043,107.291522 L542.073243,79.5815614 Z M700.34961,257.315936 L731.233399,79.5815614 L787.385743,79.7036317 C794.87276,79.8663929 802.115526,80.8226008 809.114259,82.572284 C816.112992,84.3219672 822.257136,87.0888667 827.546876,90.8730653 C832.836616,94.6572639 836.946275,99.5196827 839.875977,105.460468 C842.805679,111.401253 843.944991,118.644019 843.293946,127.188983 C842.887043,132.07182 841.829111,136.527342 840.120118,140.555682 C838.411125,144.584023 836.152847,148.185061 833.345216,151.358905 C830.537584,154.532749 827.282409,157.360683 823.579591,159.842792 C819.876773,162.324901 815.868837,164.46111 811.555665,166.251483 C815.624696,167.716334 819.103665,169.750819 821.992677,172.354999 C824.881688,174.959179 827.221346,177.929526 829.01172,181.266132 C830.802093,184.602737 832.063474,188.244465 832.795899,192.191425 C833.528325,196.138384 833.772463,200.14632 833.528321,204.21535 C832.877276,213.574121 830.557963,221.630681 826.570313,228.385272 C822.582663,235.139863 817.476106,240.673662 811.250489,244.986835 C805.024872,249.300007 797.92452,252.453459 789.94922,254.447284 C781.973919,256.441109 773.713911,257.397317 765.168946,257.315936 L700.34961,257.315936 Z M747.590821,178.946796 L738.801759,229.605975 L766.75586,229.850116 C770.824891,229.768735 774.751447,229.19908 778.535645,228.141132 C782.319844,227.083184 785.737778,225.475941 788.789552,223.319354 C791.841325,221.162768 794.384431,218.497593 796.418946,215.323749 C798.453461,212.149905 799.796221,208.406453 800.447266,204.09328 C801.586595,196.443502 800.406594,190.441772 796.907227,186.087909 C793.407861,181.734046 787.833372,179.394389 780.183595,179.068866 L747.590821,178.946796 Z M751.863282,154.166522 L775.178712,154.410663 C779.166362,154.410663 783.072573,153.963076 786.897462,153.067889 C790.722351,152.172703 794.20132,150.748563 797.334473,148.795429 C800.467627,146.842294 803.092113,144.339877 805.208009,141.288104 C807.323905,138.236331 808.707354,134.513224 809.358399,130.118671 C809.928064,126.04964 809.724615,122.611361 808.748048,119.803729 C807.77148,116.996098 806.225272,114.717475 804.109376,112.967792 C801.99348,111.218109 799.389339,109.916038 796.296876,109.061542 C793.204412,108.207045 789.827168,107.739114 786.16504,107.657733 L760.041993,107.535663 L751.863282,154.166522 Z M935.530274,79.5815614 L1035.50586,79.5815614 L1030.62305,107.291522 L997.053712,107.291522 L975.813477,229.728046 L1009.50488,229.728046 L1004.62207,257.315936 L904.646485,257.315936 L909.529298,229.728046 L942.244141,229.728046 L963.484376,107.291522 L930.647462,107.291522 L935.530274,79.5815614 Z M1222.59082,201.529804 C1221.37011,210.481671 1218.76597,218.578921 1214.77832,225.821796 C1210.79067,233.06467 1205.74515,239.249504 1199.6416,244.376483 C1193.53806,249.503462 1186.53943,253.430018 1178.64551,256.156268 C1170.75159,258.882519 1162.32882,260.123555 1153.37695,259.879413 C1146.13408,259.716652 1139.70511,258.516306 1134.08984,256.278339 C1128.47458,254.040372 1123.61216,251.029334 1119.50244,247.245136 C1115.39272,243.460937 1111.99513,239.02576 1109.30957,233.939472 C1106.62401,228.853183 1104.56918,223.400764 1103.14502,217.58205 C1101.72086,211.763336 1100.90707,205.700571 1100.70361,199.393573 C1100.50016,193.086575 1100.80534,186.800017 1101.61914,180.53371 L1105.15918,156.607929 C1106.13575,150.016099 1107.66161,143.424368 1109.73682,136.832538 C1111.81202,130.240708 1114.39582,123.974495 1117.48828,118.03371 C1120.58075,112.092925 1124.22247,106.579471 1128.41358,101.493182 C1132.60468,96.406894 1137.34503,92.0327515 1142.63477,88.3706239 C1147.92451,84.7084962 1153.76348,81.8602174 1160.15186,79.825702 C1166.54023,77.7911866 1173.47783,76.8553236 1180.96484,77.0180848 C1190.07947,77.180846 1198.01396,78.7880891 1204.76856,81.8398621 C1211.52315,84.8916352 1217.11798,89.0623292 1221.55322,94.3520692 C1225.98847,99.6418092 1229.34537,105.908023 1231.62402,113.150897 C1233.90268,120.393772 1235.16406,128.328263 1235.4082,136.954608 L1202.20508,136.832538 C1202.20508,132.519365 1201.89991,128.450396 1201.28955,124.625507 C1200.6792,120.800618 1199.4992,117.464063 1197.74951,114.615741 C1195.99983,111.76742 1193.57879,109.468452 1190.48633,107.718768 C1187.39387,105.969085 1183.40628,105.012877 1178.52344,104.850116 C1173.88474,104.687355 1169.77508,105.358735 1166.19434,106.864276 C1162.61359,108.369818 1159.46014,110.404302 1156.73389,112.967792 C1154.00764,115.531281 1151.64763,118.562664 1149.65381,122.06203 C1147.65998,125.561397 1145.97136,129.243814 1144.58789,133.109393 C1143.20442,136.974973 1142.06511,140.901528 1141.16992,144.889179 C1140.27474,148.876829 1139.58301,152.70166 1139.09473,156.363788 L1135.67676,180.65578 C1135.26986,183.666863 1134.90365,187.003418 1134.57813,190.665546 C1134.2526,194.327673 1134.11019,198.030436 1134.15088,201.773944 C1134.19157,205.517452 1134.53743,209.179525 1135.18848,212.760272 C1135.83952,216.341019 1136.97883,219.535161 1138.60645,222.342792 C1140.23406,225.150423 1142.4313,227.429046 1145.19824,229.178729 C1147.96518,230.928413 1151.50519,231.88462 1155.81836,232.047382 C1160.7012,232.291524 1165.05499,231.681178 1168.87988,230.216327 C1172.70477,228.751476 1176.00064,226.676301 1178.76758,223.990741 C1181.53452,221.305181 1183.81314,218.07035 1185.60352,214.286151 C1187.39389,210.501953 1188.73665,206.331259 1189.63184,201.773944 L1222.59082,201.529804 Z M1424.69043,181.388202 C1423.63248,187.980032 1422.08627,194.531073 1420.05176,201.041522 C1418.01724,207.551972 1415.43345,213.736806 1412.30029,219.59621 C1409.16714,225.455614 1405.50507,230.887689 1401.31397,235.892597 C1397.12286,240.897504 1392.38251,245.190267 1387.09277,248.771014 C1381.80303,252.351762 1375.98441,255.118661 1369.63672,257.071796 C1363.28903,259.024931 1356.37178,259.920104 1348.88477,259.757343 C1341.80465,259.594581 1335.51809,258.394235 1330.0249,256.156268 C1324.53171,253.918301 1319.77102,250.907264 1315.74268,247.123065 C1311.71434,243.338867 1308.39813,238.944379 1305.79395,233.939472 C1303.18977,228.934564 1301.19597,223.563524 1299.8125,217.82619 C1298.42903,212.088857 1297.61524,206.127816 1297.37109,199.942889 C1297.12695,193.757963 1297.41178,187.613818 1298.22559,181.510272 L1302.25391,155.631366 C1303.23047,149.120917 1304.71565,142.63091 1306.70947,136.161151 C1308.7033,129.691392 1311.18537,123.526903 1314.15576,117.667499 C1317.12615,111.808095 1320.64581,106.355675 1324.71484,101.310077 C1328.78388,96.2644788 1333.38181,91.9310261 1338.50879,88.3095887 C1343.63577,84.6881513 1349.33233,81.8805622 1355.59863,79.8867371 C1361.86494,77.8929121 1368.70081,76.9773939 1376.10645,77.1401551 C1383.26794,77.3029163 1389.63588,78.4829176 1395.21045,80.6801942 C1400.78502,82.8774708 1405.66779,85.8681635 1409.85889,89.6523621 C1414.04999,93.4365608 1417.52896,97.8310481 1420.2959,102.835956 C1423.06284,107.840864 1425.19905,113.211904 1426.70459,118.949237 C1428.21013,124.686571 1429.12565,130.688301 1429.45117,136.954608 C1429.7767,143.220916 1429.53256,149.446439 1428.71875,155.631366 L1424.69043,181.388202 Z M1394.7832,155.265155 C1395.19011,152.254072 1395.51562,148.958207 1395.75977,145.37746 C1396.00391,141.796713 1396.02425,138.195675 1395.8208,134.574237 C1395.61735,130.9528 1395.10873,127.433141 1394.29492,124.015155 C1393.48112,120.597169 1392.21974,117.545442 1390.51074,114.859882 C1388.80175,112.174321 1386.56382,109.977078 1383.79688,108.268085 C1381.02993,106.559092 1377.57131,105.623229 1373.4209,105.460468 C1368.94497,105.297706 1364.99806,105.928397 1361.58008,107.352557 C1358.16209,108.776718 1355.1714,110.770513 1352.60791,113.334003 C1350.04442,115.897492 1347.82683,118.86784 1345.95508,122.245136 C1344.08332,125.622431 1342.51677,129.18278 1341.25537,132.926288 C1339.99397,136.669796 1338.95639,140.474283 1338.14258,144.339862 C1337.32877,148.205441 1336.67774,151.887859 1336.18945,155.387225 L1332.16113,181.632343 C1331.75423,184.480664 1331.40837,187.654461 1331.12354,191.153827 C1330.8387,194.653193 1330.71663,198.233887 1330.75733,201.896014 C1330.79802,205.558142 1331.14388,209.138836 1331.79492,212.638202 C1332.44597,216.137568 1333.54459,219.270675 1335.09082,222.037616 C1336.63705,224.804557 1338.73257,227.062835 1341.37744,228.812518 C1344.02231,230.562202 1347.4199,231.51841 1351.57031,231.681171 C1355.96487,231.843932 1359.91177,231.213242 1363.41113,229.789081 C1366.9105,228.36492 1370.02326,226.39147 1372.74951,223.868671 C1375.47576,221.345872 1377.85611,218.375524 1379.89063,214.957538 C1381.92514,211.539552 1383.65445,207.938514 1385.07861,204.154315 C1386.50277,200.370117 1387.66243,196.52494 1388.55762,192.618671 C1389.4528,188.712401 1390.18522,185.009639 1390.75488,181.510272 L1394.7832,155.265155 Z M1486.89746,257.315936 L1517.65918,79.5815614 L1560.62793,79.7036317 C1572.1026,79.9477735 1582.07157,82.3281208 1590.53516,86.844745 C1598.99874,91.3613691 1605.91599,97.3427546 1611.28711,104.789081 C1616.65823,112.235407 1620.38134,120.820933 1622.45654,130.545917 C1624.53175,140.2709 1624.9183,150.504359 1623.61621,161.2466 L1621.54102,175.895038 C1619.9134,187.044182 1616.69892,197.582814 1611.89746,207.511249 C1607.09601,217.439684 1600.97221,226.086245 1593.52588,233.45119 C1586.07955,240.816136 1577.41265,246.655108 1567.5249,250.96828 C1557.63716,255.281453 1546.79335,257.397317 1534.99316,257.315936 L1486.89746,257.315936 Z M1546.58984,107.413593 L1525.34961,229.728046 L1536.45801,229.972186 C1544.18917,229.972186 1550.98435,228.446323 1556.84375,225.39455 C1562.70316,222.342777 1567.70799,218.314497 1571.8584,213.309589 C1576.00881,208.304681 1579.36571,202.547089 1581.9292,196.036639 C1584.49269,189.52619 1586.30338,182.81239 1587.36133,175.895038 L1589.43652,160.880389 C1589.92481,156.97412 1590.18929,152.966185 1590.22998,148.856464 C1590.27067,144.746743 1589.98584,140.738807 1589.37549,136.832538 C1588.76513,132.926268 1587.74789,129.243851 1586.32373,125.785175 C1584.89957,122.326498 1582.98715,119.274771 1580.58643,116.629901 C1578.1857,113.985031 1575.2357,111.869167 1571.73633,110.282245 C1568.23696,108.695323 1564.08661,107.779805 1559.28516,107.535663 L1546.58984,107.413593 Z M1804.10938,179.435077 L1733.30859,179.435077 L1724.51953,229.605975 L1807.40527,229.605975 L1802.52246,257.315936 L1686.18945,257.315936 L1717.07324,79.5815614 L1833.04004,79.5815614 L1828.15723,107.535663 L1745.75977,107.535663 L1737.94727,152.335468 L1808.87012,152.335468 L1804.10938,179.435077 Z" id="CHIBICODE"></path>
            <polygon id="[" points="68 25.9765625 30.2314453 25.9765625 30.2314453 311.71875 68 311.71875 68 337.695312 0.32421875 337.695312 0.32421875 0 68 0"></polygon>
            <polygon id="]" points="1883 0 1950.84668 0 1950.84668 337.695312 1883 337.695312 1883 311.71875 1920.93945 311.71875 1920.93945 25.9765625 1883 25.9765625"></polygon>
        </g>
    </g>
</svg>