<?xml version="1.0" encoding="UTF-8"?>
<svg width="1500px" height="1500px" viewBox="0 0 1500 1500" version="1.1" xmlns="http://www.w3.org/2000/svg" xmlns:xlink="http://www.w3.org/1999/xlink">
    <!-- Generator: Sketch 49.1 (51147) - http://www.bohemiancoding.com/sketch -->
    <title>red-logo</title>
    <desc>Created with Sketch.</desc>
    <defs>
        <rect id="path-1" x="0" y="0" width="1500" height="1500"></rect>
    </defs>
    <g id="red-logo" stroke="none" stroke-width="1" fill="none" fill-rule="evenodd">
        <g id="shu-uesugi">
            <g id="Group">
                <g id="Rectangle">
                    <use fill="#E57373" fill-rule="evenodd" xlink:href="#path-1"></use>
                    <rect stroke-opacity="0.87" stroke="#000000" stroke-width="30" x="15" y="15" width="1470" height="1470"></rect>
                </g>
                <g id="Letters-Outline" transform="translate(221.000000, 219.000000)" fill="#000000" fill-opacity="0.87">
                    <path d="M262.952148,276.758789 C263.521813,272.526997 263.094571,268.905614 261.67041,265.894531 C260.246249,262.883448 258.211765,260.299653 255.566895,258.143066 C252.922025,255.98648 249.890642,254.175789 246.472656,252.710938 C243.05467,251.246086 239.677426,249.944016 236.34082,248.804688 C229.993132,246.770172 223.747264,244.186376 217.603027,241.053223 C211.458791,237.920069 206.026716,234.156272 201.306641,229.761719 C196.586565,225.367166 192.863458,220.219919 190.137207,214.319824 C187.410956,208.41973 186.29199,201.685585 186.780273,194.117187 C187.268557,185.653604 189.58787,178.248079 193.738281,171.900391 C197.888693,165.552703 203.096974,160.263042 209.363281,156.03125 C215.629589,151.799458 222.607872,148.666351 230.29834,146.631836 C237.988808,144.597321 245.699506,143.661458 253.430664,143.824219 C261.487345,143.98698 268.93356,145.37043 275.769531,147.974609 C282.605503,150.578789 288.464819,154.240862 293.347656,158.960937 C298.230493,163.681013 301.99429,169.377571 304.63916,176.050781 C307.28403,182.723992 308.484376,190.210896 308.240234,198.511719 L275.769531,198.389648 C275.850912,194.401998 275.38298,190.739926 274.365723,187.40332 C273.348465,184.066715 271.802256,181.218436 269.727051,178.858398 C267.651845,176.498361 265.047704,174.667324 261.914551,173.365234 C258.781397,172.063145 255.098979,171.37142 250.867187,171.290039 C247.28644,171.208658 243.726092,171.6359 240.186035,172.571777 C236.645978,173.507654 233.411147,174.931794 230.481445,176.844238 C227.551743,178.756683 225.069672,181.157375 223.035156,184.046387 C221.000641,186.935399 219.73926,190.332988 219.250977,194.239258 C218.762693,198.389669 219.454418,201.909328 221.326172,204.79834 C223.197926,207.687352 225.700342,210.128734 228.833496,212.122559 C231.96665,214.116384 235.36424,215.784661 239.026367,217.127441 C242.688495,218.470222 246.02505,219.629878 249.036133,220.606445 C255.465201,222.803722 261.609346,225.550276 267.46875,228.846191 C273.328154,232.142106 278.434711,236.068662 282.788574,240.625977 C287.142437,245.183291 290.519682,250.452607 292.92041,256.434082 C295.321138,262.415557 296.277346,269.109012 295.789062,276.514648 C295.382159,282.292672 294.202158,287.541643 292.249023,292.261719 C290.295889,296.981794 287.712093,301.193178 284.497559,304.895996 C281.283024,308.598814 277.580262,311.833645 273.38916,314.600586 C269.198058,317.367527 264.701847,319.625805 259.900391,321.375488 C255.098934,323.125172 250.094102,324.406897 244.885742,325.220703 C239.677383,326.034509 234.469102,326.400717 229.260742,326.319336 C220.715778,326.156575 212.740597,324.75278 205.334961,322.10791 C197.929325,319.46304 191.500353,315.658553 186.047852,310.694336 C180.59535,305.730118 176.383967,299.728388 173.413574,292.688965 C170.443182,285.649542 169.080077,277.654016 169.324219,268.702148 L202.039062,268.824219 C201.794921,278.427131 204.134578,285.832656 209.058105,291.041016 C213.981633,296.249375 221.366813,298.934895 231.213867,299.097656 C234.794614,299.097656 238.354963,298.670414 241.89502,297.815918 C245.435076,296.961422 248.669907,295.618661 251.599609,293.787598 C254.529312,291.956534 257.011383,289.637221 259.045898,286.82959 C261.080414,284.021959 262.382484,280.665059 262.952148,276.758789 Z M572.15625,324 L539.075195,324 L552.50293,246.973633 L503.918945,246.973633 L490.491211,324 L457.288086,324 L488.049805,146.265625 L521.375,146.265625 L508.679687,219.141602 L557.263672,219.141602 L569.958984,146.265625 L603.040039,146.265625 L572.15625,324 Z M897.473633,146.265625 L877.576172,263.941406 C876.192701,273.137416 873.71063,281.600873 870.129883,289.332031 C866.549136,297.06319 861.91051,303.715955 856.213867,309.290527 C850.517224,314.865099 843.783079,319.178207 836.01123,322.22998 C828.239382,325.281754 819.511442,326.685548 809.827148,326.441406 C800.875281,326.278645 793.164583,324.508643 786.694824,321.131348 C780.225065,317.754052 774.996439,313.237496 771.008789,307.581543 C767.021139,301.92559 764.25424,295.354204 762.708008,287.867188 C761.161776,280.380171 760.876948,272.48637 761.853516,264.185547 L781.995117,146.265625 L815.442383,146.265625 L795.666992,264.185547 C795.260089,267.684913 795.076985,271.408021 795.117676,275.35498 C795.158366,279.30194 795.728022,282.984358 796.82666,286.402344 C797.925298,289.82033 799.715645,292.688953 802.197754,295.008301 C804.679863,297.327648 808.199521,298.609374 812.756836,298.853516 C817.802434,299.097657 822.156232,298.222829 825.818359,296.229004 C829.480487,294.235179 832.552559,291.570004 835.034668,288.233398 C837.516777,284.896793 839.490227,281.112651 840.955078,276.880859 C842.419929,272.649067 843.477861,268.417339 844.128906,264.185547 L864.270508,146.265625 L897.473633,146.265625 Z M310.55957,439.265625 L290.662109,556.941406 C289.278639,566.137416 286.796567,574.600873 283.21582,582.332031 C279.635073,590.06319 274.996448,596.715955 269.299805,602.290527 C263.603162,607.865099 256.869017,612.178207 249.097168,615.22998 C241.325319,618.281754 232.597379,619.685548 222.913086,619.441406 C213.961218,619.278645 206.250521,617.508643 199.780762,614.131348 C193.311003,610.754052 188.082377,606.237496 184.094727,600.581543 C180.107076,594.92559 177.340177,588.354204 175.793945,580.867188 C174.247714,573.380171 173.962886,565.48637 174.939453,557.185547 L195.081055,439.265625 L228.52832,439.265625 L208.75293,557.185547 C208.346027,560.684913 208.162923,564.408021 208.203613,568.35498 C208.244304,572.30194 208.813959,575.984358 209.912598,579.402344 C211.011236,582.82033 212.801583,585.688953 215.283691,588.008301 C217.7658,590.327648 221.285459,591.609374 225.842773,591.853516 C230.888372,592.097657 235.242169,591.222829 238.904297,589.229004 C242.566425,587.235179 245.638497,584.570004 248.120605,581.233398 C250.602714,577.896793 252.576165,574.112651 254.041016,569.880859 C255.505867,565.649067 256.563799,561.417339 257.214844,557.185547 L277.356445,439.265625 L310.55957,439.265625 Z M578.015625,539.119141 L507.214844,539.119141 L498.425781,589.290039 L581.311523,589.290039 L576.428711,617 L460.095703,617 L490.979492,439.265625 L606.946289,439.265625 L602.063477,467.219727 L519.666016,467.219727 L511.853516,512.019531 L582.776367,512.019531 L578.015625,539.119141 Z M849.866211,569.758789 C850.435875,565.526997 850.008633,561.905614 848.584473,558.894531 C847.160312,555.883448 845.125827,553.299653 842.480957,551.143066 C839.836087,548.98648 836.804705,547.175789 833.386719,545.710938 C829.968733,544.246086 826.591488,542.944016 823.254883,541.804688 C816.907195,539.770172 810.661326,537.186376 804.51709,534.053223 C798.372853,530.920069 792.940779,527.156272 788.220703,522.761719 C783.500627,518.367166 779.77752,513.219919 777.05127,507.319824 C774.325019,501.41973 773.206052,494.685585 773.694336,487.117188 C774.18262,478.653604 776.501932,471.248079 780.652344,464.900391 C784.802755,458.552703 790.011036,453.263042 796.277344,449.03125 C802.543651,444.799458 809.521934,441.666351 817.212402,439.631836 C824.90287,437.597321 832.613568,436.661458 840.344727,436.824219 C848.401407,436.98698 855.847622,438.37043 862.683594,440.974609 C869.519565,443.578789 875.378882,447.240862 880.261719,451.960938 C885.144556,456.681013 888.908353,462.377571 891.553223,469.050781 C894.198093,475.723992 895.398439,483.210896 895.154297,491.511719 L862.683594,491.389648 C862.764974,487.401998 862.297043,483.739926 861.279785,480.40332 C860.262527,477.066715 858.716319,474.218436 856.641113,471.858398 C854.565908,469.498361 851.961767,467.667324 848.828613,466.365234 C845.69546,465.063145 842.013042,464.37142 837.78125,464.290039 C834.200503,464.208658 830.640154,464.6359 827.100098,465.571777 C823.560041,466.507654 820.32521,467.931794 817.395508,469.844238 C814.465806,471.756683 811.983734,474.157375 809.949219,477.046387 C807.914703,479.935399 806.653323,483.332988 806.165039,487.239258 C805.676755,491.389669 806.36848,494.909328 808.240234,497.79834 C810.111989,500.687352 812.614405,503.128734 815.747559,505.122559 C818.880712,507.116384 822.278302,508.784661 825.94043,510.127441 C829.602557,511.470222 832.939113,512.629878 835.950195,513.606445 C842.379264,515.803722 848.523408,518.550276 854.382812,521.846191 C860.242217,525.142106 865.348774,529.068662 869.702637,533.625977 C874.0565,538.183291 877.433745,543.452607 879.834473,549.434082 C882.235201,555.415557 883.191409,562.109012 882.703125,569.514648 C882.296222,575.292672 881.116221,580.541643 879.163086,585.261719 C877.209951,589.981794 874.626155,594.193178 871.411621,597.895996 C868.197087,601.598814 864.494324,604.833645 860.303223,607.600586 C856.112121,610.367527 851.615909,612.625805 846.814453,614.375488 C842.012997,616.125172 837.008164,617.406897 831.799805,618.220703 C826.591445,619.034509 821.383164,619.400717 816.174805,619.319336 C807.62984,619.156575 799.654659,617.75278 792.249023,615.10791 C784.843387,612.46304 778.414415,608.658553 772.961914,603.694336 C767.509413,598.730118 763.298029,592.728388 760.327637,585.688965 C757.357244,578.649542 755.994139,570.654016 756.238281,561.702148 L788.953125,561.824219 C788.708983,571.427131 791.048641,578.832656 795.972168,584.041016 C800.895695,589.249375 808.280875,591.934895 818.12793,592.097656 C821.708677,592.097656 825.269025,591.670414 828.809082,590.815918 C832.349139,589.961422 835.58397,588.618661 838.513672,586.787598 C841.443374,584.956534 843.925446,582.637221 845.959961,579.82959 C847.994476,577.021959 849.296547,573.665059 849.866211,569.758789 Z M310.55957,732.265625 L290.662109,849.941406 C289.278639,859.137416 286.796567,867.600873 283.21582,875.332031 C279.635073,883.06319 274.996448,889.715955 269.299805,895.290527 C263.603162,900.865099 256.869017,905.178207 249.097168,908.22998 C241.325319,911.281754 232.597379,912.685548 222.913086,912.441406 C213.961218,912.278645 206.250521,910.508643 199.780762,907.131348 C193.311003,903.754052 188.082377,899.237496 184.094727,893.581543 C180.107076,887.92559 177.340177,881.354204 175.793945,873.867188 C174.247714,866.380171 173.962886,858.48637 174.939453,850.185547 L195.081055,732.265625 L228.52832,732.265625 L208.75293,850.185547 C208.346027,853.684913 208.162923,857.408021 208.203613,861.35498 C208.244304,865.30194 208.813959,868.984358 209.912598,872.402344 C211.011236,875.82033 212.801583,878.688953 215.283691,881.008301 C217.7658,883.327648 221.285459,884.609374 225.842773,884.853516 C230.888372,885.097657 235.242169,884.222829 238.904297,882.229004 C242.566425,880.235179 245.638497,877.570004 248.120605,874.233398 C250.602714,870.896793 252.576165,867.112651 254.041016,862.880859 C255.505867,858.649067 256.563799,854.417339 257.214844,850.185547 L277.356445,732.265625 L310.55957,732.265625 Z M581.555664,889.370117 C577.974917,893.68329 573.702499,897.325018 568.738281,900.29541 C563.774064,903.265803 558.484403,905.666495 552.869141,907.497559 C547.253878,909.328622 541.536976,910.630693 535.718262,911.403809 C529.899548,912.176924 524.304714,912.522787 518.933594,912.441406 C511.609338,912.278645 505.119332,911.078299 499.463379,908.840332 C493.807426,906.602365 488.924662,903.611672 484.814941,899.868164 C480.70522,896.124656 477.287286,891.730168 474.561035,886.68457 C471.834785,881.638972 469.75961,876.227242 468.335449,870.449219 C466.911288,864.671195 466.07715,858.628775 465.833008,852.321777 C465.588866,846.01478 465.873694,839.687532 466.6875,833.339844 L470.227539,809.169922 C471.204106,802.659473 472.709625,796.149121 474.744141,789.638672 C476.778656,783.128223 479.321762,776.923044 482.373535,771.022949 C485.425308,765.122855 489.026346,759.629745 493.176758,754.543457 C497.327169,749.457169 502.006484,745.062681 507.214844,741.359863 C512.423203,737.657045 518.180795,734.788422 524.487793,732.753906 C530.794791,730.719391 537.651005,729.742838 545.056641,729.824219 C553.764366,729.98698 561.393685,731.37043 567.944824,733.974609 C574.495964,736.578789 579.989073,740.261207 584.424316,745.021973 C588.85956,749.782739 592.277495,755.560676 594.678223,762.355957 C597.078951,769.151238 598.482745,776.739867 598.889648,785.12207 L566.418945,785.12207 C566.256184,781.215801 565.767908,777.594418 564.954102,774.257812 C564.140295,770.921207 562.838225,768.032239 561.047852,765.59082 C559.257478,763.149402 556.91782,761.216641 554.028809,759.79248 C551.139797,758.36832 547.538759,757.574871 543.225586,757.412109 C538.912413,757.249348 535.026547,757.941073 531.567871,759.487305 C528.109195,761.033536 524.996433,763.149401 522.229492,765.834961 C519.462551,768.520521 517.061859,771.633283 515.027344,775.17334 C512.992828,778.713397 511.222827,782.416159 509.717285,786.281738 C508.211744,790.147318 506.991053,794.033184 506.055176,797.939453 C505.119299,801.845723 504.407229,805.507795 503.918945,808.925781 L500.378906,833.461914 C499.972003,836.554377 499.626141,839.931622 499.341309,843.59375 C499.056476,847.255878 499.015787,850.978985 499.219238,854.763184 C499.42269,858.547382 499.931311,862.18911 500.745117,865.688477 C501.558923,869.187843 502.840649,872.341295 504.590332,875.148926 C506.340015,877.956557 508.659328,880.214835 511.54834,881.923828 C514.437352,883.632821 518.03839,884.568684 522.351562,884.731445 C526.908877,884.894207 531.506813,884.385585 536.145508,883.205566 C540.784203,882.025547 544.934552,880.011407 548.59668,877.163086 L554.822266,844.814453 L526.135742,844.814453 L530.652344,819.179688 L592.541992,819.179688 L581.555664,889.370117 Z M789.807617,732.265625 L889.783203,732.265625 L884.900391,759.975586 L851.331055,759.975586 L830.09082,882.412109 L863.782227,882.412109 L858.899414,910 L758.923828,910 L763.806641,882.412109 L796.521484,882.412109 L817.761719,759.975586 L784.924805,759.975586 L789.807617,732.265625 Z" id="S-H-U-U-E-S-U-G-I"></path>
                    <polygon id="]" points="899 0 1057.44727 0 1057.44727 1061.32812 899 1061.32812 899 1032.32422 1027.36914 1032.32422 1027.36914 29.0039062 899 29.0039062"></polygon>
                    <polygon id="[" points="158.984375 29.0039062 29.5410156 29.0039062 29.5410156 1032.32422 158.984375 1032.32422 158.984375 1061.32812 0 1061.32812 0 0 158.984375 0"></polygon>
                </g>
            </g>
            <g id="Letters" transform="translate(383.000000, 311.000000)"></g>
        </g>
    </g>
</svg>