<?xml version="1.0" encoding="UTF-8"?>
<svg width="1500px" height="1500px" viewBox="0 0 1500 1500" version="1.1" xmlns="http://www.w3.org/2000/svg" xmlns:xlink="http://www.w3.org/1999/xlink">
    <!-- Generator: Sketch 49.1 (51147) - http://www.bohemiancoding.com/sketch -->
    <title>yellow-logo</title>
    <desc>Created with Sketch.</desc>
    <defs>
        <rect id="path-1" x="0" y="0" width="1500" height="1500"></rect>
    </defs>
    <g id="yellow-logo" stroke="none" stroke-width="1" fill="none" fill-rule="evenodd">
        <g id="Group">
            <g>
                <g id="Rectangle">
                    <use fill="#FFEB3B" fill-rule="evenodd" xlink:href="#path-1"></use>
                    <rect stroke-opacity="0.87" stroke="#000000" stroke-width="30" x="15" y="15" width="1470" height="1470"></rect>
                </g>
                <g id="Letters-Outline" transform="translate(221.000000, 219.000000)" fill="#000000" fill-opacity="0.87">
                    <path d="M289.78418,271.529804 C288.56347,280.481671 285.95933,288.578921 281.97168,295.821796 C277.98403,303.06467 272.938507,309.249504 266.834961,314.376483 C260.731415,319.503462 253.732787,323.430018 245.838867,326.156268 C237.944948,328.882519 229.52218,330.123555 220.570312,329.879413 C213.327438,329.716652 206.898466,328.516306 201.283203,326.278339 C195.667941,324.040372 190.805522,321.029334 186.695801,317.245136 C182.58608,313.460937 179.18849,309.02576 176.50293,303.939472 C173.817369,298.853183 171.76254,293.400764 170.338379,287.58205 C168.914218,281.763336 168.100424,275.700571 167.896973,269.393573 C167.693521,263.086575 167.998694,256.800017 168.8125,250.53371 L172.352539,226.607929 C173.329106,220.016099 174.85497,213.424368 176.930176,206.832538 C179.005381,200.240708 181.589177,193.974495 184.681641,188.03371 C187.774104,182.092925 191.415832,176.579471 195.606934,171.493182 C199.798035,166.406894 204.538385,162.032752 209.828125,158.370624 C215.117865,154.708496 220.956837,151.860217 227.345215,149.825702 C233.733593,147.791187 240.671187,146.855324 248.158203,147.018085 C257.272832,147.180846 265.207323,148.788089 271.961914,151.839862 C278.716505,154.891635 284.311339,159.062329 288.746582,164.352069 C293.181826,169.641809 296.538726,175.908023 298.817383,183.150897 C301.09604,190.393772 302.357421,198.328263 302.601562,206.954608 L269.398438,206.832538 C269.398438,202.519365 269.093265,198.450396 268.48291,194.625507 C267.872556,190.800618 266.692554,187.464063 264.942871,184.615741 C263.193188,181.76742 260.772151,179.468452 257.679688,177.718768 C254.587224,175.969085 250.599634,175.012877 245.716797,174.850116 C241.078102,174.687355 236.968442,175.358735 233.387695,176.864276 C229.806948,178.369818 226.653497,180.404302 223.927246,182.967792 C221.200995,185.531281 218.840993,188.562664 216.847168,192.06203 C214.853343,195.561397 213.16472,199.243814 211.78125,203.109393 C210.39778,206.974973 209.258468,210.901528 208.363281,214.889179 C207.468094,218.876829 206.77637,222.70166 206.288086,226.363788 L202.870117,250.65578 C202.463214,253.666863 202.097007,257.003418 201.771484,260.665546 C201.445962,264.327673 201.303548,268.030436 201.344238,271.773944 C201.384929,275.517452 201.730791,279.179525 202.381836,282.760272 C203.032881,286.341019 204.172192,289.535161 205.799805,292.342792 C207.427417,295.150423 209.624661,297.429046 212.391602,299.178729 C215.158542,300.928413 218.698546,301.88462 223.011719,302.047382 C227.894556,302.291524 232.248353,301.681178 236.073242,300.216327 C239.898131,298.751476 243.193997,296.676301 245.960938,293.990741 C248.727878,291.305181 251.006501,288.07035 252.796875,284.286151 C254.587249,280.501953 255.930009,276.331259 256.825195,271.773944 L289.78418,271.529804 Z M568.714844,327.315936 L535.633789,327.315936 L549.061523,250.289569 L500.477539,250.289569 L487.049805,327.315936 L453.84668,327.315936 L484.608398,149.581561 L517.933594,149.581561 L505.238281,222.457538 L553.822266,222.457538 L566.517578,149.581561 L599.598633,149.581561 L568.714844,327.315936 Z M786.366211,149.581561 L886.341797,149.581561 L881.458984,177.291522 L847.889648,177.291522 L826.649414,299.728046 L860.34082,299.728046 L855.458008,327.315936 L755.482422,327.315936 L760.365234,299.728046 L793.080078,299.728046 L814.320312,177.291522 L781.483398,177.291522 L786.366211,149.581561 Z M161,620.315936 L191.883789,442.581561 L248.036133,442.703632 C255.523149,442.866393 262.765916,443.822601 269.764648,445.572284 C276.763381,447.321967 282.907526,450.088867 288.197266,453.873065 C293.487006,457.657264 297.596665,462.519683 300.526367,468.460468 C303.456069,474.401253 304.595381,481.644019 303.944336,490.188983 C303.537433,495.07182 302.479501,499.527342 300.770508,503.555682 C299.061515,507.584023 296.803237,511.185061 293.995605,514.358905 C291.187974,517.532749 287.932798,520.360683 284.22998,522.842792 C280.527162,525.324901 276.519227,527.46111 272.206055,529.251483 C276.275085,530.716334 279.754055,532.750819 282.643066,535.354999 C285.532078,537.959179 287.871736,540.929526 289.662109,544.266132 C291.452483,547.602737 292.713864,551.244465 293.446289,555.191425 C294.178715,559.138384 294.422853,563.14632 294.178711,567.21535 C293.527666,576.574121 291.208353,584.630681 287.220703,591.385272 C283.233053,598.139863 278.126496,603.673662 271.900879,607.986835 C265.675262,612.300007 258.57491,615.453459 250.599609,617.447284 C242.624309,619.441109 234.364301,620.397317 225.819336,620.315936 L161,620.315936 Z M208.241211,541.946796 L199.452148,592.605975 L227.40625,592.850116 C231.475281,592.768735 235.401837,592.19908 239.186035,591.141132 C242.970234,590.083184 246.388168,588.475941 249.439941,586.319354 C252.491714,584.162768 255.034821,581.497593 257.069336,578.323749 C259.103851,575.149905 260.446611,571.406453 261.097656,567.09328 C262.236985,559.443502 261.056984,553.441772 257.557617,549.087909 C254.058251,544.734046 248.483762,542.394389 240.833984,542.068866 L208.241211,541.946796 Z M212.513672,517.166522 L235.829102,517.410663 C239.816752,517.410663 243.722963,516.963076 247.547852,516.067889 C251.37274,515.172703 254.85171,513.748563 257.984863,511.795429 C261.118017,509.842294 263.742502,507.339877 265.858398,504.288104 C267.974294,501.236331 269.357744,497.513224 270.008789,493.118671 C270.578453,489.04964 270.375005,485.611361 269.398438,482.803729 C268.42187,479.996098 266.875662,477.717475 264.759766,475.967792 C262.64387,474.218109 260.039729,472.916038 256.947266,472.061542 C253.854802,471.207045 250.477557,470.739114 246.81543,470.657733 L220.692383,470.535663 L212.513672,517.166522 Z M492.90918,442.581561 L592.884766,442.581561 L588.001953,470.291522 L554.432617,470.291522 L533.192383,592.728046 L566.883789,592.728046 L562.000977,620.315936 L462.025391,620.315936 L466.908203,592.728046 L499.623047,592.728046 L520.863281,470.291522 L488.026367,470.291522 L492.90918,442.581561 Z M876.698242,564.529804 C875.477533,573.481671 872.873392,581.578921 868.885742,588.821796 C864.898092,596.06467 859.85257,602.249504 853.749023,607.376483 C847.645477,612.503462 840.646849,616.430018 832.75293,619.156268 C824.85901,621.882519 816.436243,623.123555 807.484375,622.879413 C800.2415,622.716652 793.812528,621.516306 788.197266,619.278339 C782.582003,617.040372 777.719584,614.029334 773.609863,610.245136 C769.500142,606.460937 766.102552,602.02576 763.416992,596.939472 C760.731432,591.853183 758.676602,586.400764 757.252441,580.58205 C755.828281,574.763336 755.014487,568.700571 754.811035,562.393573 C754.607584,556.086575 754.912756,549.800017 755.726562,543.53371 L759.266602,519.607929 C760.243169,513.016099 761.769033,506.424368 763.844238,499.832538 C765.919444,493.240708 768.50324,486.974495 771.595703,481.03371 C774.688167,475.092925 778.329894,469.579471 782.520996,464.493182 C786.712098,459.406894 791.452448,455.032752 796.742188,451.370624 C802.031927,447.708496 807.870899,444.860217 814.259277,442.825702 C820.647656,440.791187 827.585249,439.855324 835.072266,440.018085 C844.186895,440.180846 852.121385,441.788089 858.875977,444.839862 C865.630568,447.891635 871.225401,452.062329 875.660645,457.352069 C880.095888,462.641809 883.452788,468.908023 885.731445,476.150897 C888.010103,483.393772 889.271483,491.328263 889.515625,499.954608 L856.3125,499.832538 C856.3125,495.519365 856.007327,491.450396 855.396973,487.625507 C854.786618,483.800618 853.606617,480.464063 851.856934,477.615741 C850.10725,474.76742 847.686213,472.468452 844.59375,470.718768 C841.501287,468.969085 837.513696,468.012877 832.630859,467.850116 C827.992164,467.687355 823.882505,468.358735 820.301758,469.864276 C816.721011,471.369818 813.567559,473.404302 810.841309,475.967792 C808.115058,478.531281 805.755056,481.562664 803.76123,485.06203 C801.767405,488.561397 800.078783,492.243814 798.695312,496.109393 C797.311842,499.974973 796.172531,503.901528 795.277344,507.889179 C794.382157,511.876829 793.690432,515.70166 793.202148,519.363788 L789.78418,543.65578 C789.377277,546.666863 789.011069,550.003418 788.685547,553.665546 C788.360024,557.327673 788.21761,561.030436 788.258301,564.773944 C788.298991,568.517452 788.644854,572.179525 789.295898,575.760272 C789.946943,579.341019 791.086255,582.535161 792.713867,585.342792 C794.341479,588.150423 796.538723,590.429046 799.305664,592.178729 C802.072605,593.928413 805.612609,594.88462 809.925781,595.047382 C814.808618,595.291524 819.162416,594.681178 822.987305,593.216327 C826.812194,591.751476 830.108059,589.676301 832.875,586.990741 C835.641941,584.305181 837.920564,581.07035 839.710938,577.286151 C841.501311,573.501953 842.844071,569.331259 843.739258,564.773944 L876.698242,564.529804 Z M295.155273,837.388202 C294.097325,843.980032 292.551117,850.531073 290.516602,857.041522 C288.482086,863.551972 285.89829,869.736806 282.765137,875.59621 C279.631983,881.455614 275.96991,886.887689 271.778809,891.892597 C267.587707,896.897504 262.847357,901.190267 257.557617,904.771014 C252.267877,908.351762 246.44925,911.118661 240.101563,913.071796 C233.753875,915.024931 226.836626,915.920104 219.349609,915.757343 C212.269496,915.594581 205.982938,914.394235 200.489746,912.156268 C194.996555,909.918301 190.23586,906.907264 186.20752,903.123065 C182.179179,899.338867 178.862969,894.944379 176.258789,889.939472 C173.654609,884.934564 171.660814,879.563524 170.277344,873.82619 C168.893873,868.088857 168.080079,862.127816 167.835938,855.942889 C167.591796,849.757963 167.876624,843.613818 168.69043,837.510272 L172.71875,811.631366 C173.695317,805.120917 175.180491,798.63091 177.174316,792.161151 C179.168141,785.691392 181.650213,779.526903 184.620605,773.667499 C187.590998,767.808095 191.110657,762.355675 195.179688,757.310077 C199.248718,752.264479 203.846654,747.931026 208.973633,744.309589 C214.100612,740.688151 219.797169,737.880562 226.063477,735.886737 C232.329784,733.892912 239.165653,732.977394 246.571289,733.140155 C253.732783,733.302916 260.100721,734.482918 265.675293,736.680194 C271.249865,738.877471 276.132629,741.868164 280.32373,745.652362 C284.514832,749.436561 287.993801,753.831048 290.760742,758.835956 C293.527683,763.840864 295.663892,769.211904 297.169434,774.949237 C298.674975,780.686571 299.590493,786.688301 299.916016,792.954608 C300.241538,799.220916 299.9974,805.446439 299.183594,811.631366 L295.155273,837.388202 Z M265.248047,811.265155 C265.65495,808.254072 265.980468,804.958207 266.224609,801.37746 C266.468751,797.796713 266.489096,794.195675 266.285645,790.574237 C266.082193,786.9528 265.573572,783.433141 264.759766,780.015155 C263.945959,776.597169 262.684579,773.545442 260.975586,770.859882 C259.266593,768.174321 257.02866,765.977078 254.261719,764.268085 C251.494778,762.559092 248.036154,761.623229 243.885742,761.460468 C239.409808,761.297706 235.462908,761.928397 232.044922,763.352557 C228.626936,764.776718 225.636243,766.770513 223.072754,769.334003 C220.509265,771.897492 218.291676,774.86784 216.419922,778.245136 C214.548168,781.622431 212.981614,785.18278 211.720215,788.926288 C210.458815,792.669796 209.421228,796.474283 208.607422,800.339862 C207.793616,804.205441 207.142581,807.887859 206.654297,811.387225 L202.625977,837.632343 C202.219073,840.480664 201.873211,843.654461 201.588379,847.153827 C201.303547,850.653193 201.181478,854.233887 201.222168,857.896014 C201.262858,861.558142 201.608721,865.138836 202.259766,868.638202 C202.910811,872.137568 204.009432,875.270675 205.555664,878.037616 C207.101896,880.804557 209.197415,883.062835 211.842285,884.812518 C214.487155,886.562202 217.884745,887.51841 222.035156,887.681171 C226.429709,887.843932 230.37661,887.213242 233.875977,885.789081 C237.375343,884.36492 240.488105,882.39147 243.214355,879.868671 C245.940606,877.345872 248.320953,874.375524 250.355469,870.957538 C252.389984,867.539552 254.119296,863.938514 255.543457,860.154315 C256.967618,856.370117 258.127274,852.52494 259.022461,848.618671 C259.917648,844.712401 260.650062,841.009639 261.219727,837.510272 L265.248047,811.265155 Z M454.09082,913.315936 L484.852539,735.581561 L527.821289,735.703632 C539.295956,735.947774 549.264932,738.328121 557.728516,742.844745 C566.1921,747.361369 573.109348,753.342755 578.480469,760.789081 C583.851589,768.235407 587.574697,776.820933 589.649902,786.545917 C591.725108,796.2709 592.11166,806.504359 590.80957,817.2466 L588.734375,831.895038 C587.106763,843.044182 583.892277,853.582814 579.09082,863.511249 C574.289364,873.439684 568.165565,882.086245 560.719238,889.45119 C553.272912,896.816136 544.606006,902.655108 534.718262,906.96828 C524.830517,911.281453 513.986713,913.397317 502.186523,913.315936 L454.09082,913.315936 Z M513.783203,763.413593 L492.542969,885.728046 L503.651367,885.972186 C511.382526,885.972186 518.177705,884.446323 524.037109,881.39455 C529.896514,878.342777 534.901346,874.314497 539.051758,869.309589 C543.202169,864.304681 546.559069,858.547089 549.122559,852.036639 C551.686048,845.52619 553.49674,838.81239 554.554688,831.895038 L556.629883,816.880389 C557.118167,812.97412 557.38265,808.966185 557.42334,804.856464 C557.46403,800.746743 557.179202,796.738807 556.568848,792.832538 C555.958493,788.926268 554.941251,785.243851 553.51709,781.785175 C552.092929,778.326498 550.180513,775.274771 547.779785,772.629901 C545.379057,769.985031 542.429054,767.869167 538.929688,766.282245 C535.430321,764.695323 531.279972,763.779805 526.478516,763.535663 L513.783203,763.413593 Z M868.03125,835.435077 L797.230469,835.435077 L788.441406,885.605975 L871.327148,885.605975 L866.444336,913.315936 L750.111328,913.315936 L780.995117,735.581561 L896.961914,735.581561 L892.079102,763.535663 L809.681641,763.535663 L801.869141,808.335468 L872.791992,808.335468 L868.03125,835.435077 Z" id="C-H-I-B-I-C-O-D-E"></path>
                    <polygon id="]" points="899 0 1057.44727 0 1057.44727 1061.32812 899 1061.32812 899 1032.32422 1027.36914 1032.32422 1027.36914 29.0039062 899 29.0039062"></polygon>
                    <polygon id="[" points="158.984375 29.0039062 29.5410156 29.0039062 29.5410156 1032.32422 158.984375 1032.32422 158.984375 1061.32812 0 1061.32812 0 0 158.984375 0"></polygon>
                </g>
            </g>
        </g>
    </g>
</svg>